<svg width="174" height="204" viewBox="0 0 174 204" fill="none" xmlns="http://www.w3.org/2000/svg">
<path d="M143.732 46.6079C143.732 46.9176 144.042 47.3823 144.351 47.3823C144.816 47.3823 144.971 47.0725 144.971 46.7628C145.591 46.7628 146.365 46.9176 146.675 47.3823L146.83 48.0019L148.379 48.1568L149.618 49.241L147.759 49.7056C147.759 50.4801 148.843 50.4801 149.463 50.4801C150.392 50.4801 151.786 49.7056 152.561 50.7899C152.406 51.0996 151.941 51.4094 151.631 51.4094C151.476 51.4094 151.476 50.9448 151.476 50.7899H150.857L151.476 51.7192L153.18 52.3387C152.715 51.8741 152.406 51.4094 153.335 51.4094L154.264 52.029L153.645 52.6485C154.109 52.9583 154.884 53.1132 155.503 53.1132C155.968 54.0425 156.278 55.2816 157.517 55.2816L158.446 56.3659L159.221 55.9012L160.305 57.1403L163.093 58.5343L164.797 61.3223C164.797 61.787 164.797 62.2516 164.487 62.7163C164.177 62.5614 163.713 61.6321 163.093 61.4772C163.093 61.4772 163.093 60.7027 162.938 60.7027C162.783 60.7027 162.628 61.3223 162.628 61.4772C164.022 62.4065 164.952 63.9554 166.346 64.8847C166.346 65.8141 166.965 66.8983 167.43 67.6727C167.275 67.8276 166.346 68.9119 167.12 68.9119C166.965 69.3765 167.12 69.9961 167.74 69.9961C167.275 72.3194 166.965 74.0232 166.965 76.3465L166.501 76.8112C166.501 77.2758 166.346 78.0503 165.881 78.3601L165.726 79.2894C163.867 80.2187 163.248 83.1616 161.234 84.0909C161.234 86.1045 151.631 92.3001 149.308 94.6234C149.308 94.9332 149.308 95.2429 148.998 95.2429C148.069 95.2429 147.449 94.1587 146.675 94.1587C146.365 94.1587 146.21 94.4685 146.21 94.7783L143.887 96.6369H142.028C141.409 96.9467 140.789 97.5663 140.634 98.1858C139.395 98.6505 138.001 99.27 136.917 100.199C136.762 100.044 136.297 99.7347 136.297 99.4249C136.297 99.1152 136.762 99.1152 136.917 99.1152C137.381 98.8054 137.691 98.1858 137.846 97.5663H139.55L140.789 96.482L140.324 95.5527L139.085 96.1723C134.593 96.482 135.987 98.4956 134.593 98.4956H133.974L132.115 99.27C132.115 99.8896 132.735 100.199 133.354 100.199H133.509C133.509 98.9603 135.833 100.354 136.297 100.664C136.297 101.903 134.903 102.678 133.819 102.678L131.341 103.762C131.341 104.536 132.115 104.691 132.735 104.691H133.354C133.354 105.466 132.425 105.156 131.96 105.001C131.96 105.156 131.96 105.62 131.651 105.62C131.496 105.62 131.186 105.156 131.186 105.001L130.566 104.381C130.566 104.846 129.947 104.846 129.637 104.846C129.637 105.775 127.778 105.311 127.623 106.86C127.004 107.789 126.384 108.718 125.61 109.493L124.681 108.254L122.822 107.479C122.977 105.93 120.034 106.705 120.034 105.775V105.62C118.64 106.085 117.246 106.705 116.162 107.479C115.077 107.324 112.599 107.479 112.444 108.873H110.741C110.741 109.338 110.276 109.493 109.811 109.493H109.501L109.656 110.422C110.276 109.648 111.67 110.112 112.444 110.267C113.064 109.957 113.993 109.648 114.613 109.648C115.077 109.648 115.387 109.648 115.387 110.112C115.542 110.112 116.007 110.267 116.007 109.957C116.007 109.648 114.768 109.028 115.852 109.028L117.556 107.944L118.02 108.563L118.795 107.944C119.879 108.099 121.738 108.254 122.822 107.944C120.963 109.028 123.906 108.718 124.371 109.338C124.371 109.957 122.822 110.112 122.357 110.112C122.512 110.577 122.202 110.887 121.738 110.887C120.808 110.887 120.344 110.577 119.724 111.506L118.175 111.971C118.02 112.436 117.556 112.745 117.091 112.745C116.936 113.055 116.317 114.449 116.007 114.449C115.852 114.449 115.852 114.139 115.852 114.139C115.852 113.675 115.852 113.365 115.387 113.365C114.458 113.365 113.529 113.83 112.754 114.294C112.289 114.139 111.67 114.294 111.515 114.914L112.909 116.153C113.838 116.308 115.542 118.941 116.162 119.715C116.162 120.335 116.317 120.645 116.936 120.645C117.711 120.645 118.485 120.954 119.259 121.264C119.259 121.729 119.414 122.194 119.879 122.348C119.414 122.813 119.105 123.433 118.95 124.052L120.344 122.968L122.512 125.911C122.512 127.305 122.202 127.46 123.751 127.46C123.751 127.924 123.906 128.544 124.371 128.699C124.061 128.854 122.822 129.318 122.822 129.628C122.822 129.938 123.287 129.938 123.441 129.938C123.441 130.093 123.596 130.403 123.751 130.403C124.216 130.403 124.216 129.473 124.216 129.318H125.3C125.61 129.318 125.92 129.318 125.92 129.783C125.92 131.022 125.61 131.177 127.004 131.332C127.004 132.571 128.708 132.571 128.708 134.894C129.482 135.514 130.257 136.288 130.876 137.063V137.373L131.805 137.992C132.27 137.837 133.509 138.457 133.974 138.612C133.974 139.076 134.129 139.541 134.593 139.696C134.129 140.161 133.819 140.78 133.664 141.4L135.058 140.316L137.227 143.258C137.227 144.652 136.917 144.807 138.466 144.807C138.466 145.272 138.621 145.892 139.085 146.046L137.691 146.976L138.156 147.286C138.156 147.44 138.311 147.75 138.466 147.75C138.93 147.75 138.93 146.821 138.93 146.666H140.015C140.324 146.666 140.634 146.666 140.634 147.131C140.634 148.37 140.324 148.525 141.718 148.68C141.718 149.609 143.422 150.538 143.422 151.158C143.422 153.171 145.436 154.875 147.139 155.65L146.985 157.353L147.914 158.283L149.153 161.071L148.998 162.465L149.618 163.859H150.082C151.167 163.859 150.392 162.155 151.167 162.155C151.321 162.155 151.321 162.465 151.321 162.465V162.774C151.631 163.549 152.406 164.478 153.025 164.943L152.87 167.111L153.49 168.97L154.574 169.744C154.574 172.068 155.813 169.125 155.813 173.307L157.207 174.856C157.827 174.701 158.446 175.011 158.446 175.785L159.685 177.024C159.685 178.108 160.15 179.193 160.615 180.122C160.46 180.742 160.77 181.206 161.389 181.361C161.234 182.136 161.854 181.826 161.854 182.445V182.6C162.473 183.375 163.093 184.149 163.403 185.078C163.403 185.853 165.881 187.402 165.881 188.796L166.81 190.035C166.655 190.5 166.655 191.274 167.275 191.274C167.74 191.429 167.895 192.048 167.895 192.513L168.979 193.597C168.824 194.217 168.514 195.456 169.443 195.611C170.063 196.23 170.837 197.16 170.837 198.089C171.302 199.793 172.231 201.497 173.161 202.891H173.471C173.471 203.046 172.386 203.51 172.231 203.51C171.302 202.581 170.683 201.032 170.218 199.793C170.837 198.399 169.134 198.399 168.204 198.244C167.74 197.779 167.74 197.005 167.74 196.54L166.501 195.456C166.655 194.062 164.952 194.372 164.952 192.978V192.823C163.713 192.823 163.558 191.119 162.164 191.119C162.009 191.274 161.389 192.203 161.389 191.429C160.925 191.119 160.305 190.5 160.305 189.88V189.725L159.221 188.796L158.601 187.557C158.137 187.402 157.982 186.782 157.982 186.318V186.008L157.517 186.163L157.362 185.698L156.743 185.388C156.433 184.304 155.968 183.065 155.039 182.136C155.039 181.671 154.264 181.516 153.955 181.516C152.87 180.122 151.476 179.193 150.547 177.799C149.927 177.644 149.463 177.024 148.843 177.024C148.843 176.714 148.843 176.405 148.533 176.405C147.914 176.405 147.759 176.405 147.759 175.785C147.139 175.785 146.83 176.095 146.83 176.714V177.024L145.436 176.405C145.436 175.475 144.042 175.94 144.042 175.011C144.042 172.532 142.338 174.546 142.338 173.462V172.842C141.873 172.532 141.099 172.068 140.479 172.068C140.169 172.068 139.705 172.068 139.55 172.378C139.395 172.378 138.311 172.842 138.311 172.842C138.311 172.997 138.621 172.997 138.621 172.997C139.24 175.011 141.563 177.489 141.563 179.193L142.648 180.432L142.183 181.516C141.563 181.516 140.944 180.122 140.789 179.657C140.634 179.657 136.917 176.56 135.678 176.405C135.523 176.25 132.89 172.687 131.96 172.687C131.805 172.687 131.651 172.997 131.651 173.152L130.876 173.617L131.496 174.081C131.496 174.701 131.651 175.785 132.115 176.25C132.58 176.25 132.735 176.714 132.735 177.179C132.735 177.334 132.735 178.108 132.27 178.108C131.96 178.108 131.651 177.644 131.496 177.489C130.257 177.489 130.102 175.63 128.708 175.475L128.398 173.926C127.778 172.997 125.765 171.138 125.765 170.054C125.3 169.899 125.145 169.28 125.145 168.815L124.061 167.731C123.751 167.576 123.596 167.266 123.596 166.956C123.596 165.408 122.357 166.802 122.357 165.098L121.428 164.323V163.549C121.273 163.394 120.653 163.239 120.653 162.929C120.653 162.62 121.738 162.465 122.047 162.465L122.512 161.845L122.202 161.226C122.202 161.071 122.202 160.916 122.047 160.916C121.428 160.916 120.344 162.31 120.344 160.761V160.606L117.401 158.747V158.902L118.02 159.986C118.64 160.296 119.105 161.071 119.259 161.69C118.64 161.69 118.175 161.226 117.865 160.761L116.781 160.141C115.542 160.141 115.387 158.283 113.993 158.128L113.683 156.579C113.064 155.65 111.05 153.791 111.05 152.707C110.586 152.552 110.431 151.932 110.431 151.468L109.347 150.383C109.037 150.228 108.882 149.919 108.882 149.609C108.882 148.06 107.643 149.454 107.643 147.75L106.714 146.976V146.201C106.559 146.046 105.939 145.892 105.939 145.582C105.939 145.272 107.023 145.117 107.333 145.117L107.798 144.498L107.488 143.878C107.488 143.723 107.488 143.568 107.333 143.568C106.714 143.568 105.629 144.962 105.629 143.413V143.258L102.532 141.4C102.377 140.316 100.363 140.006 100.363 138.922L98.1946 136.288C97.2653 136.288 96.8006 134.585 96.6457 133.81C96.336 133.346 95.4066 131.797 94.942 131.797C94.4773 131.797 94.7871 132.571 94.4773 132.571C93.548 132.571 90.1404 129.473 89.8306 128.854L88.1268 128.079C87.972 128.079 87.6622 128.079 87.6622 127.77C87.6622 127.46 87.972 126.84 87.3524 126.84C87.0426 127.305 85.8035 127.615 85.8035 127.305C85.8035 126.995 86.578 126.84 86.578 126.376C86.578 126.221 85.0291 125.911 84.7193 125.756C81.6215 126.685 82.5508 124.982 80.5373 124.982C78.9884 125.601 77.4395 125.756 77.4395 127.615L76.6651 127.15L76.2004 127.615C75.5809 127.615 73.2575 133.036 73.1026 133.346L72.3282 134.43L71.7086 134.12C70.6244 135.204 69.85 136.908 69.2304 138.147C69.3853 137.992 70.3146 137.063 70.3146 137.837C70.3146 138.767 69.6951 138.767 69.5402 139.541C69.0755 140.47 68.6109 141.4 67.8364 142.019C67.8364 142.639 67.2169 142.794 67.062 143.568L65.8229 144.807L65.2033 146.201C63.9642 147.286 62.7251 148.37 61.3311 149.299C61.3311 150.693 59.4724 150.848 59.4724 152.087C59.1626 152.552 58.3882 153.481 57.9235 153.481C57.6138 153.481 57.6138 153.016 57.6138 152.862V152.552C58.5431 152.552 59.3175 150.383 59.6273 149.609C59.7822 149.609 60.092 149.609 60.092 149.299C60.092 148.989 59.7822 148.525 59.4724 148.37C59.6273 147.75 59.9371 147.131 60.4018 146.666C60.4018 145.117 59.0078 144.188 57.6138 144.188C56.9942 144.188 56.2198 144.343 56.2198 145.117L54.9807 144.343L55.4453 146.356L52.9671 150.383C52.9671 151.158 52.3475 151.468 52.3475 152.242C51.1084 152.087 51.2633 154.41 50.1791 154.41C49.2498 154.41 48.4753 154.101 48.4753 155.34C48.0107 155.65 47.7009 156.269 47.7009 156.889C47.546 156.579 47.2362 156.114 46.9264 156.114C46.6167 156.114 46.6167 156.579 46.6167 156.734C45.3775 156.579 46.4618 157.818 45.3775 157.818C45.2227 159.057 43.9835 159.522 43.9835 160.761L43.364 162.155H42.2798L41.5053 163.239C41.3504 163.859 41.5053 165.408 40.4211 165.408C38.8722 165.408 40.2662 166.647 38.8722 166.647L38.4076 164.788L40.4211 162.31C40.4211 160.606 41.6602 160.451 41.6602 158.902C42.4347 158.902 42.5895 158.128 42.5895 157.508L42.4347 156.579L44.2933 154.101L45.0678 151.158C45.5324 151.158 45.6873 151.003 45.6873 150.538C45.6873 150.074 45.3775 149.454 46.152 149.454C45.9971 148.989 45.9971 148.06 46.7715 148.215L46.3069 147.595L45.0678 149.454C45.0678 151.003 44.4482 151.158 43.2091 151.777C43.0542 152.397 42.5895 153.016 42.5895 153.636C42.4347 153.326 41.97 152.862 41.6602 152.862C41.3504 152.862 41.0407 154.256 40.8858 154.565C42.8993 154.72 37.4782 158.592 37.4782 159.832C36.2391 159.832 35 165.098 32.8316 165.098L31.4376 168.196C30.0436 168.041 30.6631 169.125 30.0436 169.125H29.8887L29.2691 170.054C29.2691 171.293 28.03 170.364 28.03 171.293C26.9458 172.997 23.3833 178.573 21.9893 179.348C21.9893 179.348 21.9893 179.657 21.8345 179.657C21.8345 179.657 21.5247 178.418 21.5247 177.954L22.7638 175.166C23.6931 174.701 24.1578 171.603 25.0871 170.829C25.5518 169.744 26.7909 164.633 27.5653 164.014C27.7202 162.929 28.4947 162 28.4947 160.761L29.1142 159.522C29.1142 158.747 29.7338 158.747 29.7338 158.128L30.3533 157.044C30.3533 156.424 30.5082 155.804 30.9729 155.34L32.3669 151.932C32.3669 151.158 34.2256 146.666 34.5353 146.356C34.5353 145.892 34.6902 145.117 35.1549 144.807C35.1549 144.188 35.7744 143.878 35.7744 143.258L36.8587 142.329C37.0136 141.4 37.9429 140.161 38.4076 139.386C38.5624 138.767 39.0271 138.457 39.182 137.837L39.9564 136.598C39.9564 135.824 40.1113 133.5 41.1956 133.5C41.1956 133.191 41.1956 132.416 40.7309 132.416H40.576L41.3504 130.867L41.5053 129.318L41.97 129.009C41.97 129.009 41.97 128.389 42.1249 128.389C42.4347 128.389 42.5895 128.854 42.7444 129.009C43.8287 129.009 43.8287 127.77 43.8287 126.995H43.2091C42.5895 126.995 38.5624 127.924 37.788 128.234L36.394 127.924L36.2391 127.46C36.2391 127.15 36.2391 126.84 36.5489 126.685H34.6902C32.9864 126.685 31.4376 127.15 29.8887 127.77C29.424 126.685 28.1849 128.079 27.4105 128.079C27.2556 128.079 27.1007 127.924 27.1007 127.77L24.3127 128.699C24.1578 128.854 24.0029 129.009 23.848 129.009C23.6931 129.009 23.5382 128.854 23.3833 128.699C22.6089 129.009 21.8345 129.164 21.06 129.318V129.473C20.4405 129.473 19.8209 129.628 19.3562 129.938C19.0465 129.628 18.4269 129.783 18.1171 129.938L16.7231 130.093H16.2585L12.696 131.487C13.0058 130.403 10.2178 132.106 9.90802 132.261C7.12002 131.177 3.2478 133.655 0.459805 133.655C0.614694 133.036 4.79669 131.487 5.10647 131.332C5.41625 132.416 7.27491 130.712 7.89446 130.712C9.13358 130.712 15.6389 128.699 17.4976 128.079L16.4133 127.15L14.09 128.079C13.7802 128.079 13.7802 127.77 13.3156 127.924L12.3862 127.615L11.4569 128.699C10.8374 128.234 10.0629 127.615 10.0629 126.84C10.0629 126.221 11.302 125.756 11.7667 126.221L12.2314 126.066C12.5411 126.066 12.8509 126.066 13.0058 126.376L15.0193 125.601H15.9487C16.878 124.362 18.7367 123.897 20.1307 123.433C20.5953 124.207 21.8345 122.503 22.2991 122.348L22.6089 121.419C24.1578 119.87 27.2556 118.476 29.424 118.631L30.9729 117.702C30.818 117.702 29.7338 117.237 29.7338 117.082C29.7338 116.772 32.0571 115.843 32.3669 115.688C33.4511 115.998 34.8451 115.843 35.9293 115.533V114.604L38.2527 113.675C39.182 113.83 40.576 112.745 41.6602 112.745C43.0542 112.745 42.8993 110.422 43.9835 110.422C44.4482 110.422 45.2227 110.577 45.2227 109.802C45.9971 108.873 46.9264 108.099 47.8558 107.479C48.94 107.634 48.94 107.944 49.4047 107.014L52.1927 105.93C53.122 105.001 54.516 102.678 54.516 101.284C56.0649 101.748 56.9942 98.9603 57.1491 97.5663C57.304 95.7076 58.5431 97.2565 58.5431 96.3272C58.5431 95.8625 58.2333 95.5527 58.0784 95.2429C59.3175 94.9332 58.0784 92.1452 59.1626 92.1452H59.3175C59.3175 91.8354 59.3175 91.3707 59.6273 91.3707C62.4153 91.3707 60.2469 90.1316 61.7958 90.1316L61.9506 87.3436C63.3446 84.4007 63.6544 80.5285 66.5973 78.9796C65.8229 78.9796 65.8229 77.7405 65.9778 77.2758C67.2169 77.2758 67.2169 75.727 67.3718 74.7976L68.6109 73.5585C68.6109 72.1645 70.6244 70.4607 70.7793 69.5314C71.7086 68.9119 71.0891 67.363 71.8635 66.7434L72.4831 65.8141C72.638 64.7298 73.2575 64.575 73.4124 63.8005C73.5673 63.8005 73.8771 63.8005 73.8771 63.6456C73.8771 63.4907 73.5673 63.181 73.4124 63.181C72.7929 63.6456 72.0184 63.8005 71.244 63.6456L70.0049 62.8712L70.6244 62.4065C71.0891 62.4065 74.032 63.0261 74.032 62.4065C74.032 62.0967 72.4831 61.4772 72.1733 61.3223C72.1733 63.3359 68.456 60.7027 67.9913 60.2381L71.244 60.0832V59.4636C72.0184 58.999 72.7929 58.6892 73.7222 58.3794C73.8771 58.3794 74.1869 58.3794 74.1869 58.2245C74.1869 57.7599 73.8771 57.4501 73.5673 57.2952C72.7929 57.2952 72.7929 56.3659 71.7086 56.3659L61.6409 55.9012L61.9506 55.2816C64.274 55.4365 66.7522 55.1268 69.0755 54.817L68.456 54.5072C63.4995 54.817 57.9235 54.5072 52.9671 55.1268C46.7715 56.0561 39.0271 57.605 32.5218 57.605C32.3669 58.3794 30.1984 58.5343 29.5789 58.5343C29.1142 58.5343 28.4947 58.3794 28.4947 57.7599L31.5924 56.3659C32.9864 56.5208 35 55.9012 36.5489 55.9012C36.8587 55.9012 38.2527 55.9012 38.2527 55.2816C37.4782 55.1268 37.4782 54.5072 36.7038 54.5072H36.5489L35.4647 54.0425C37.3233 54.0425 39.182 53.5779 40.8858 53.2681C40.8858 52.4936 43.2091 52.4936 43.2091 52.3387C43.2091 52.1839 42.7444 52.029 42.5895 52.029C42.8993 51.7192 42.4347 51.4094 42.1249 51.4094C39.4918 51.5643 36.8587 51.8741 34.2256 51.7192C35.4647 51.4094 36.7038 51.0996 37.9429 51.0996C38.4076 51.0996 40.4211 50.9448 40.4211 50.7899C40.4211 50.3252 40.1113 50.0154 39.8016 49.8605L33.7609 50.0154C33.7609 50.3252 33.7609 50.635 33.4511 50.635C33.1413 50.635 32.9864 50.3252 32.8316 50.1703C28.3398 50.1703 24.0029 51.4094 19.3562 51.4094L18.7367 52.029L6.96513 52.4936L6.50047 53.1132C6.0358 53.1132 5.72602 53.1132 5.72602 52.6485C5.72602 51.8741 5.57114 51.0996 6.34558 51.0996C7.58469 51.0996 7.73958 51.0996 8.8238 50.635H9.59824L11.6118 49.8605C11.4569 48.6214 13.7802 48.6214 14.5547 48.6214H16.878L20.7502 47.0725C21.06 46.7628 21.5247 46.7628 21.8345 46.7628C22.7638 46.7628 24.3127 45.9883 25.5518 45.8334C25.3969 45.2139 25.8616 44.4394 26.636 44.4394C28.9593 44.4394 34.8451 43.5101 36.8587 42.5808C37.4782 42.7356 38.2527 42.8905 38.8722 42.5808C38.8722 41.8063 40.4211 41.8063 40.8858 41.8063H41.3504L42.5895 40.877C44.9129 40.2574 48.7851 39.9476 51.1084 39.7928C51.4182 39.483 52.0378 39.1732 52.5024 39.1732C55.1355 39.1732 57.4589 39.3281 60.092 39.0183L61.486 38.089L63.0349 37.9341C63.8093 37.9341 65.2033 38.5537 65.668 37.6243C67.062 37.0048 69.3853 38.089 71.3989 37.1597C72.9477 37.6243 74.3417 36.8499 75.8906 36.8499L84.4095 36.5401C85.3388 36.5401 86.2682 36.5401 87.1975 36.8499V36.695C87.6622 36.0754 87.6622 35.301 87.8171 34.6814L88.7464 33.5972C89.5208 30.6543 91.3795 26.937 93.548 24.7686C93.548 23.6843 94.1675 22.9099 94.1675 21.8257C95.0968 21.361 96.1811 21.0512 96.1811 19.8121C96.4908 19.8121 96.8006 19.8121 96.8006 19.3474C96.8006 18.8828 96.9555 18.7279 97.4202 18.7279C97.4202 18.2632 97.2653 17.6437 97.8848 17.6437H98.6593L99.4337 16.5594C99.4337 15.1654 100.518 13.1519 101.447 12.0677C101.292 11.1383 101.292 11.1383 102.222 11.1383C102.222 11.1383 102.686 11.1383 102.686 10.9835C102.686 10.8286 101.602 10.3639 101.447 10.3639L102.067 8.815L103.461 8.35034L104.7 5.87212C105.474 5.87212 105.939 3.85857 106.094 3.23901L107.488 0.915685C107.953 0.915685 108.417 1.07057 108.417 1.69013C108.417 2.15479 108.107 2.61946 107.798 3.08413C107.643 3.54879 107.488 4.16835 107.023 4.32323C107.023 5.40745 106.559 5.40745 106.559 6.02701C106.094 6.33679 105.939 6.80145 105.939 7.26612V7.5759C105.474 7.5759 105.01 7.88567 105.01 8.35034V8.50523C104.545 8.815 104.39 9.43457 104.39 9.89924C103.926 10.0541 103.771 10.6737 103.771 11.1383L103.151 12.2226L102.996 13.3068L102.532 13.7715C102.377 15.9399 101.602 18.2632 100.053 19.967L99.2788 20.1219C99.2788 20.7414 99.4337 21.8257 98.6593 21.8257H97.8848C97.73 22.755 97.4202 25.2332 96.6457 26.0077C96.336 26.0077 96.0262 26.4723 96.0262 26.7821V27.0919C95.5615 27.5565 95.4066 28.1761 95.2517 28.7957C95.7164 28.6408 96.0262 29.1054 95.8713 29.5701C97.4202 27.8663 98.0397 23.3746 100.828 23.0648L100.983 24.7686C100.363 24.9234 98.9691 25.3881 98.9691 26.1626C98.9691 26.7821 99.2788 27.5565 99.5886 28.1761C99.8984 28.1761 99.8984 26.937 99.8984 26.7821C100.053 25.2332 101.912 26.3174 102.222 22.2903C102.841 22.1354 104.08 20.1219 104.545 19.5023C104.855 19.5023 105.474 19.8121 105.474 20.2768V21.2061L104.545 21.8257C105.01 22.6001 105.319 23.6843 105.319 24.6137C105.319 25.0783 105.165 25.543 104.545 25.543C104.545 26.6272 103.926 27.4017 103.771 28.331C103.461 28.6408 103.151 29.4152 103.151 29.8799C103.151 30.3445 103.306 30.9641 103.771 31.2739C103.771 32.9777 102.686 31.7386 102.532 33.4423C102.532 34.0619 102.222 34.6814 101.757 35.1461V36.2303L101.138 36.8499L104.7 37.0048H104.855C105.319 36.5401 105.474 35.6108 105.474 34.9912C105.784 34.9912 106.094 34.9912 106.094 34.6814C106.094 34.2168 106.249 34.0619 106.714 34.0619L107.798 33.1325C107.953 33.1325 108.727 33.1325 108.727 32.8228L108.572 32.0483C109.037 31.8934 109.347 31.4288 109.347 30.9641C110.431 30.0348 111.05 26.7821 112.135 26.7821H112.444C112.599 26.3174 113.683 24.149 113.683 23.5294C114.303 23.6843 114.458 22.9099 115.077 22.9099C115.387 22.9099 115.542 23.2197 115.542 23.3746C115.542 23.6843 115.232 24.4588 115.697 24.4588C116.471 24.4588 116.626 25.0783 116.471 25.6979C116.781 25.6979 116.936 25.3881 116.936 25.2332C116.936 24.6137 116.781 24.149 117.556 24.149C117.865 24.149 118.175 24.3039 118.175 24.6137C118.175 25.3881 117.711 26.0077 117.401 26.6272L116.317 27.2468C116.317 28.6408 115.387 28.1761 115.387 30.3445L114.768 30.9641L113.529 30.6543C113.529 28.7957 114.768 31.4288 114.768 27.5565C114.923 27.4017 115.542 27.0919 115.542 26.7821C115.542 26.6272 115.077 26.6272 114.923 26.6272C113.993 26.937 113.219 27.5565 112.444 28.1761C112.135 28.9505 111.67 32.8228 110.741 32.9777L109.347 35.1461L109.037 36.5401L110.431 35.9205L111.05 34.6814V33.7521L112.135 33.907V32.513C113.064 32.8228 112.599 31.119 113.374 31.119C113.993 31.119 113.993 31.8934 113.993 32.2032C113.993 32.8228 113.374 32.9777 113.374 33.5972C113.374 33.907 112.289 37.6243 112.135 38.089C113.838 38.2439 115.852 38.8634 117.246 38.8634C117.091 39.6379 118.33 39.6379 118.795 39.6379C119.259 39.6379 120.189 39.6379 120.499 40.1025L124.526 40.4123L124.99 41.0319H126.539C126.849 41.3416 127.159 41.6514 127.469 41.6514C127.778 41.6514 127.778 41.1868 127.778 41.0319L129.172 41.1868L129.792 40.5672C130.721 41.3416 132.115 41.8063 133.354 41.9612L134.593 43.3552C135.368 43.3552 136.142 43.8199 136.917 43.8199L138.621 45.059C138.621 43.8199 139.395 45.059 139.55 45.3688C141.099 45.3688 142.028 46.6079 143.732 46.6079ZM96.6457 78.0503C97.1104 77.7405 97.2653 76.9661 97.2653 76.5014L98.6593 74.9525C98.6593 73.7134 99.8984 73.5585 100.053 72.1645L99.4337 71.0803C98.0397 71.0803 98.3495 73.4036 96.8006 74.333C96.8006 76.8112 92.6186 77.7405 92.6186 82.697C92.4637 82.8518 91.9991 83.3165 91.9991 83.6263C91.9991 83.9361 92.4637 83.9361 92.6186 83.9361L93.8577 82.8518C93.7028 82.3872 93.7028 81.4578 94.4773 81.4578L95.5615 80.2187C96.9555 80.5285 96.9555 79.4443 98.1946 79.4443H98.5044L98.1946 81.1481C95.7164 81.1481 97.73 82.5421 96.336 83.3165C96.336 83.6263 96.4908 84.7105 96.0262 84.7105L95.7164 84.5556C95.2517 85.6398 95.2517 86.8789 93.7028 86.8789L93.0833 88.1181C93.3931 88.2729 93.8577 88.7376 93.8577 89.0474C93.8577 89.3572 93.3931 89.3572 93.2382 89.3572C93.0833 89.8218 93.0833 91.2158 92.4637 91.2158C91.8442 91.2158 91.5344 91.3707 91.5344 91.9903C91.3795 92.1452 90.9148 92.3001 90.9148 92.6098C90.9148 92.7647 91.3795 92.9196 91.5344 92.9196C92.7735 92.9196 96.1811 91.5256 97.2653 91.2158L98.3495 90.2865C98.8142 90.2865 99.2788 90.1316 99.4337 89.6669C100.053 89.2023 100.828 88.8925 101.602 88.5827C102.686 88.5827 102.686 88.5827 102.686 87.4985L104.545 87.9632L104.7 87.4985C104.7 86.8789 104.08 86.8789 105.319 86.8789C105.629 86.5692 106.094 86.5692 106.404 86.5692H106.714L107.798 85.6398L110.121 85.3301L110.276 84.0909H111.36C111.36 83.7812 111.515 83.6263 111.825 83.6263H112.135C113.219 82.8518 115.387 81.9225 116.781 81.9225L118.33 80.9932C118.485 80.5285 118.95 80.3736 119.414 80.3736C119.414 79.5992 120.034 79.4443 120.653 79.5992L121.893 79.1345C122.977 79.4443 122.202 78.2052 122.977 78.2052C124.061 78.2052 126.229 77.8954 126.229 76.6563C126.229 76.3465 126.075 75.8818 126.694 75.8818L127.004 75.4172L128.398 75.5721L130.566 72.6292C130.411 72.3194 129.947 70.7705 129.637 70.7705C129.482 70.7705 129.482 71.2352 129.482 71.2352L127.623 70.9254C127.623 68.757 124.526 70.151 124.526 68.2923V67.9825C118.33 67.5179 113.064 65.3494 106.559 65.3494C105.629 65.3494 105.474 66.1239 105.474 66.8983C105.01 66.8983 104.855 67.363 104.855 67.8276C104.855 68.4472 104.855 68.9119 103.926 68.9119H103.616C103.306 70.151 102.841 71.2352 102.377 72.3194L100.983 73.7134V74.7976L100.518 75.727C98.9691 74.1781 99.1239 77.2758 99.1239 78.0503H96.6457ZM153.335 86.1045C152.561 86.1045 151.631 86.8789 151.012 87.3436C151.167 89.0474 151.476 89.6669 149.618 89.6669C149.618 89.8218 149.618 90.1316 149.463 90.1316C149.153 90.1316 148.998 89.5121 148.998 89.3572L147.914 88.1181L147.139 88.5827L148.069 90.1316L147.139 90.7512L146.675 89.9767L146.21 90.5963C145.436 90.5963 145.126 90.5963 145.126 91.5256C145.126 91.5256 145.126 91.8354 145.281 91.8354C145.591 91.8354 145.745 91.3707 145.9 91.2158L146.985 90.9061C146.985 91.6805 146.365 91.6805 146.365 92.4549L147.759 91.9903C148.533 92.1452 149.463 92.4549 149.463 91.3707C150.702 89.8218 152.251 88.2729 153.8 87.0338C153.645 87.0338 152.87 86.2594 153.49 86.2594H153.645L156.897 84.8654C158.137 83.0067 159.995 81.4578 161.544 79.909C161.854 79.909 162.009 79.7541 162.009 79.4443C162.009 79.1345 162.009 78.8247 162.473 78.8247L163.558 77.5856C163.713 77.5856 164.022 77.7405 164.022 77.4307C164.022 77.2758 163.867 76.8112 164.177 76.8112H164.487C164.642 76.6563 164.797 76.5014 164.797 76.3465C164.797 75.8818 164.332 75.4172 164.022 75.1074C164.022 74.9525 164.022 74.7976 163.867 74.7976C163.248 74.7976 162.473 77.4307 162.319 77.5856C161.699 78.6698 160.305 79.909 159.221 80.5285C157.982 80.3736 158.601 81.6127 157.672 81.6127C156.123 82.5421 154.419 84.7105 153.335 86.1045ZM129.792 102.368L130.257 101.438C129.792 101.593 129.792 100.819 129.792 100.664C129.327 100.664 124.681 103.297 124.526 103.452C124.526 103.917 123.906 104.072 123.596 104.072L122.977 104.691V104.846C122.977 105.311 123.287 105.311 123.596 105.311C124.216 105.311 124.99 105.001 125.455 104.691C126.384 104.691 126.384 103.607 127.314 103.607H127.469C127.933 102.832 128.863 102.368 129.792 102.368ZM66.2875 134.894L65.9778 137.373L62.88 140.006V141.09L64.1191 141.245C64.8935 140.006 67.5266 137.992 67.5266 136.598C67.5266 135.824 66.9071 135.204 66.2875 134.894ZM91.2246 87.0338C90.76 87.3436 90.76 88.1181 90.76 88.5827L89.0562 88.1181C88.9013 88.8925 88.4366 89.3572 88.2817 90.1316L87.0426 90.7512C87.0426 91.2158 87.972 91.3707 88.2817 91.3707C88.7464 91.3707 89.5208 91.2158 89.9855 91.0609L90.6051 89.2023L91.8442 87.8083C92.3088 87.8083 92.4637 87.1887 92.4637 86.8789L91.2246 87.0338ZM139.395 89.2023C138.93 89.0474 138.311 89.2023 137.846 89.6669C137.381 89.6669 136.762 89.6669 136.452 90.1316C135.678 90.7512 134.129 92.4549 132.89 92.4549C132.735 92.7647 132.27 92.9196 131.96 92.9196H131.651L130.102 94.4685L130.411 94.3136H130.566L133.045 93.2294C134.129 92.7647 135.058 92.6098 135.987 91.9903L136.762 90.7512C137.227 90.9061 138.001 91.2158 138.001 90.4414L140.015 88.8925H139.395V89.2023ZM66.7522 125.291L65.668 126.376C65.5131 127.77 64.7386 126.995 64.7386 129.318C64.7386 130.093 65.3582 130.093 65.9778 130.093L66.2875 128.389L67.3718 126.995L66.9071 125.291C67.2169 125.291 67.8364 125.291 67.8364 124.827C67.8364 124.517 67.5266 124.207 67.2169 124.207C66.7522 124.207 66.7522 125.136 66.7522 125.291ZM62.1055 133.346C61.6409 134.12 60.2469 136.134 60.2469 137.063C60.2469 137.528 60.5566 137.682 60.8664 137.682L61.486 137.528C62.1055 136.443 62.5702 135.204 63.0349 133.965L62.1055 133.346ZM148.069 82.8518H147.294C146.055 82.8518 146.055 83.9361 144.971 83.9361C144.971 85.7947 143.577 85.9496 142.028 86.2594L141.563 87.4985L140.789 88.1181C140.789 88.2729 140.944 88.5827 141.099 88.5827C141.254 88.5827 141.254 88.2729 141.254 88.1181C142.183 88.1181 142.338 87.0338 143.112 87.0338H143.267C144.506 86.1045 145.745 84.7105 146.675 83.4714L148.069 82.8518ZM100.983 65.0396C100.828 66.4336 99.5886 66.4336 99.5886 67.5179L98.9691 68.6021C98.9691 68.9119 99.2788 69.3765 99.5886 69.3765C99.8984 69.3765 100.208 68.9119 100.208 68.6021L101.447 66.1239C101.602 65.969 102.532 65.5043 102.532 65.3494C102.532 65.1945 101.292 65.0396 100.983 65.0396ZM47.3911 141.09C46.4618 140.935 44.9129 142.949 44.9129 143.723C44.9129 144.343 45.3775 144.498 45.8422 144.498L47.0813 142.329C47.546 142.484 47.546 141.555 47.546 141.245C47.546 141.245 47.546 140.625 47.3911 140.625V141.09ZM49.0949 49.7056C49.0949 50.3252 49.4047 50.7899 50.0242 50.7899C50.6438 50.7899 52.3475 50.3252 52.9671 50.1703L55.1355 49.7056C55.2904 49.7056 55.91 49.7056 55.91 49.5508H55.7551L49.0949 49.7056ZM38.4076 167.266C38.8722 167.266 39.0271 167.576 39.0271 167.886C39.0271 168.815 38.2527 170.054 37.3233 170.054C37.1684 170.054 36.8587 169.899 36.8587 169.744C36.8587 168.815 37.788 167.886 38.4076 167.266ZM51.2633 135.204C51.2633 135.979 50.6438 136.288 50.6438 137.063L48.6302 137.528C48.6302 138.147 49.2498 138.302 49.7144 138.302H49.8693C49.8693 137.992 50.0242 137.682 50.334 137.682C50.6438 137.682 50.9535 137.992 51.1084 138.302C50.9535 137.837 50.7987 136.598 51.5731 136.598L52.5024 134.74L51.2633 135.204ZM149.463 177.644L150.392 179.038L149.618 179.967L148.069 178.883C148.224 177.799 148.379 177.644 149.463 177.644ZM134.748 160.296C133.664 160.296 133.509 160.451 133.354 161.535L134.903 162.62L135.678 161.69L134.748 160.296ZM117.556 18.7279V20.7414C117.556 21.0512 117.556 21.361 117.091 21.361C116.781 21.361 116.317 21.0512 116.007 20.7414C116.007 20.7414 115.697 20.7414 115.697 20.5866C115.697 20.2768 116.781 19.6572 117.091 19.5023C116.471 19.1926 116.007 18.7279 117.246 18.7279H117.556ZM139.24 149.144C139.24 149.764 138.621 149.609 138.621 151.003H140.789L140.634 149.764L139.55 149.609H139.86L139.24 149.144ZM153.335 168.35C153.335 167.886 153.335 167.111 153.8 166.802C154.264 166.802 154.729 167.111 155.349 167.111L155.503 168.35H153.335ZM85.6486 93.8489C85.4937 94.3136 85.0291 94.7783 84.5644 94.7783V96.0174L85.6486 95.8625L86.8877 94.6234L85.6486 93.8489ZM119.259 40.877C119.259 42.5808 120.344 42.5808 121.738 42.5808C121.738 41.6514 120.034 41.0319 119.259 40.877ZM131.031 160.141C131.031 161.38 131.496 161.845 132.735 161.845C132.735 162 133.045 163.084 133.199 163.084C133.509 163.084 133.509 162.155 133.509 162C132.58 161.226 131.496 160.606 130.721 159.677L131.031 160.141ZM66.5973 130.093V131.022C66.5973 132.106 67.2169 132.416 68.3011 132.416C68.3011 131.332 67.3718 130.712 66.5973 130.093ZM21.2149 126.53C20.1307 126.53 17.4976 126.685 17.4976 128.079C18.1171 127.924 21.2149 126.685 21.2149 126.53ZM117.556 18.7279C117.246 18.4181 116.936 18.1083 116.936 17.7986C116.936 17.179 117.711 17.179 118.02 17.179C118.33 17.179 118.795 17.179 118.795 17.4888C118.795 17.9534 117.865 18.573 117.556 18.7279ZM122.357 97.5663L120.808 98.3407C120.808 98.6505 121.118 98.9603 121.428 98.9603C122.202 98.9603 122.822 98.1858 123.441 97.7212L122.357 97.5663ZM57.4589 55.7463L58.8529 55.5914C59.3175 55.5914 59.7822 55.7463 59.7822 56.3659V56.5208H58.698C58.0784 56.5208 57.4589 56.5208 57.4589 55.7463ZM48.4753 142.019C48.3204 142.639 47.8558 143.104 47.8558 143.723C47.8558 144.033 48.3204 144.188 48.6302 144.188L49.2498 143.104L48.4753 142.019ZM39.9564 58.6892L41.5053 58.5343C41.97 58.5343 42.2798 58.8441 42.2798 59.3087L41.0407 59.4636C40.4211 59.4636 39.9564 59.3087 39.9564 58.6892ZM54.3611 56.211L56.6844 56.5208L56.3746 57.1403C55.7551 57.1403 54.3611 56.9854 54.3611 56.211ZM36.8587 59.4636L39.182 59.6185L38.8722 60.2381H38.5624C38.0978 60.2381 36.8587 60.2381 36.8587 59.4636ZM128.398 41.8063C129.017 42.1161 129.792 42.4259 130.566 42.4259C130.721 42.4259 130.876 42.4259 130.876 42.271C130.876 41.9612 129.172 41.4965 128.708 41.4965C128.553 41.4965 128.398 41.6514 128.398 41.8063ZM101.602 40.2574C101.912 40.2574 102.067 40.1025 102.067 39.7928C102.067 39.3281 101.912 39.0183 101.757 38.7085C101.447 38.7085 100.983 38.7085 100.983 39.1732C100.983 39.6379 101.292 39.9476 101.602 40.2574ZM143.267 94.3136C143.267 95.0881 142.648 94.3136 142.648 95.0881L143.887 95.2429C143.887 94.4685 144.506 94.9332 144.506 94.3136H143.267ZM128.398 156.424V156.579C128.398 156.889 128.243 157.044 128.243 157.353C128.243 157.818 129.017 157.663 129.172 157.663L129.327 157.044C129.172 156.734 128.863 156.424 128.553 156.424H128.398ZM57.6138 140.625C57.6138 141.71 57.7686 141.555 58.698 141.71V140.625H57.6138ZM103.151 142.639L104.545 144.343C103.306 144.343 103.151 143.723 103.151 142.639ZM33.7609 160.916C33.7609 161.38 34.0707 161.69 34.5353 161.69L35 161.535C35 161.071 34.6902 160.916 34.2256 160.916H33.7609ZM135.368 168.041H135.987L135.368 167.576C135.368 167.421 135.523 166.802 135.213 166.802C134.903 166.802 134.903 167.266 134.903 167.421C134.903 167.731 135.058 168.041 135.368 168.041ZM115.542 25.3881L114.303 24.4588L114.613 25.6979L115.542 25.3881ZM125.455 44.1297C125.455 44.4394 125.765 45.2139 126.229 45.2139C126.384 45.2139 126.539 45.059 126.539 44.7492L125.455 44.1297ZM156.743 56.3659V56.5208C156.743 56.6756 156.743 56.8305 157.052 56.8305C157.207 56.8305 157.517 56.8305 157.672 56.6756V56.5208C157.672 56.3659 157.362 56.3659 157.207 56.3659H156.743ZM57.304 121.884V122.039C57.304 122.194 57.304 122.503 57.4589 122.503C57.7686 122.503 57.9235 122.194 57.9235 121.884C57.9235 121.729 57.7686 121.729 57.7686 121.729L57.304 121.884ZM141.409 93.5392C141.409 93.8489 141.563 94.1587 141.873 94.1587C142.028 94.1587 142.028 93.6941 142.028 93.5392C142.028 93.5392 142.028 93.3843 141.873 93.3843L141.409 93.5392ZM51.2633 133.5C51.2633 133.81 51.4182 134.12 51.728 134.12C51.8829 134.12 52.0378 133.965 52.0378 133.81C52.0378 133.5 51.728 133.5 51.5731 133.5H51.2633ZM141.099 151.622V151.777C141.099 151.932 141.099 152.242 141.409 152.242C141.563 152.242 141.718 151.932 141.718 151.777C141.718 151.622 141.563 151.468 141.409 151.468L141.099 151.622ZM91.9991 85.9496V86.1045C91.9991 86.2594 91.9991 86.5692 92.3088 86.5692C92.4637 86.5692 92.6186 86.2594 92.6186 86.1045C92.6186 85.9496 92.4637 85.7947 92.3088 85.7947L91.9991 85.9496ZM53.2769 131.952L53.122 132.726C53.122 133.036 53.4318 133.036 53.7415 133.036L53.2769 131.952ZM39.6467 153.481C39.6467 153.791 39.8016 154.101 40.1113 154.101C40.2662 154.101 40.2662 153.946 40.2662 153.791C40.2662 153.481 40.1113 153.481 39.8016 153.481H39.6467ZM133.509 100.974C133.509 101.284 133.664 101.438 133.974 101.438C134.129 101.438 134.439 101.438 134.593 101.284L133.509 100.974ZM136.607 87.3436V87.4985C136.607 87.9632 137.536 87.6534 137.691 87.4985L136.607 87.3436ZM160.925 189.106C160.925 189.26 161.079 189.725 161.389 189.725C161.544 189.725 161.544 189.57 161.544 189.415C161.544 189.106 161.234 189.106 160.925 189.106ZM94.6322 32.2032V32.0483C94.6322 31.8934 94.6322 31.5837 94.3224 31.5837C94.1675 31.5837 94.0126 31.8934 94.0126 32.0483L94.6322 32.2032ZM72.4831 132.261V132.571C72.4831 132.571 72.4831 132.881 72.638 132.881C72.7929 132.881 72.9477 132.571 72.9477 132.416C72.9477 132.261 72.9477 132.106 72.7929 132.106C72.638 132.106 72.638 132.261 72.4831 132.261ZM65.2033 143.258C65.5131 143.258 65.8229 142.949 65.9778 142.639C65.3582 142.639 65.3582 142.639 65.2033 143.258ZM122.977 105.93V106.085C122.977 106.24 122.977 106.55 123.287 106.55C123.441 106.55 123.596 106.24 123.596 106.085L122.977 105.93ZM161.854 62.0967V62.2516C161.854 62.4065 161.854 62.7163 162.164 62.7163C162.319 62.7163 162.473 62.4065 162.473 62.2516L161.854 62.0967ZM139.55 85.6398C139.55 85.7947 139.705 86.2594 139.86 86.2594C140.169 86.2594 140.169 85.9496 140.169 85.7947L139.55 85.6398ZM136.607 170.209C136.607 170.364 136.762 170.829 136.917 170.829C137.227 170.829 137.227 170.519 137.227 170.364L136.607 170.209ZM148.688 81.9225C148.688 82.0774 148.843 82.5421 148.998 82.5421C149.308 82.5421 149.308 82.2323 149.308 82.0774L148.688 81.9225ZM130.876 101.438C130.876 101.593 131.031 102.058 131.186 102.058C131.496 102.058 131.496 101.748 131.496 101.593L130.876 101.438ZM141.254 84.5556C141.254 84.7105 141.409 85.0203 141.563 85.0203C141.718 85.0203 141.873 84.8654 141.873 84.7105C141.873 84.5556 141.718 84.4007 141.563 84.4007C141.563 84.4007 141.409 84.5556 141.254 84.5556ZM129.792 102.368V102.987C130.102 102.987 130.257 102.523 130.257 102.368H129.792ZM108.572 37.7792C108.572 37.6243 108.572 37.4694 108.417 37.4694H107.953L108.107 37.9341H108.417L108.572 37.7792ZM67.2169 139.851C67.2169 140.006 67.2169 140.316 67.3718 140.316H67.8364C67.8364 140.006 67.5266 139.851 67.2169 139.851ZM111.05 115.533C111.05 115.688 111.05 116.153 111.36 116.153C111.515 116.153 111.515 115.843 111.515 115.688L111.05 115.533ZM24.0029 125.601L23.5382 126.066C23.5382 126.221 23.6931 126.221 23.848 126.221C24.0029 126.221 24.1578 126.066 24.1578 125.911L24.0029 125.601ZM144.661 93.0745V93.2294C144.661 93.3843 144.661 93.6941 144.816 93.6941C144.971 93.6941 145.126 93.3843 145.126 93.2294L144.661 93.0745ZM124.526 131.797C124.526 131.952 124.526 132.261 124.835 132.261H125.145C125.145 131.952 124.835 131.797 124.526 131.797ZM54.9807 143.258C54.9807 143.413 55.1355 143.878 55.4453 143.878C55.6002 143.878 55.6002 143.723 55.6002 143.568L54.9807 143.258ZM114.303 26.4723C114.303 26.3174 114.148 26.0077 113.838 26.0077C113.683 26.0077 113.683 26.0077 113.683 26.1626V26.3174L114.303 26.4723ZM43.8287 115.843V115.998C43.8287 116.308 43.9835 116.308 44.1384 116.308H44.2933V116.153C44.2933 115.843 43.9835 115.843 43.8287 115.843ZM148.379 165.098C148.379 165.253 148.224 165.408 148.224 165.562H148.688V165.408C148.688 165.253 148.533 165.098 148.379 165.098ZM43.0542 116.618C42.8993 116.463 42.5895 116.463 42.4347 116.463L42.8993 116.927L43.0542 116.618ZM22.454 126.53L21.9893 126.84C21.9893 126.995 22.1442 126.995 22.1442 126.995C22.2991 126.995 22.454 126.84 22.454 126.685V126.53ZM137.846 171.448C137.846 171.603 138.001 171.758 138.156 171.758H138.311C138.311 171.603 138.156 171.448 138.001 171.448H137.846ZM37.6331 126.221C37.4782 126.221 37.6331 126.685 37.6331 126.685C37.788 126.53 37.788 126.376 37.6331 126.221Z" fill="white"/>
</svg>
