<svg viewBox="0 0 80 80" fill="none" xmlns="http://www.w3.org/2000/svg">
<g clip-path="url(#clip0_1452_568)">
<path fill-rule="evenodd" clip-rule="evenodd" d="M80 17.3334V62.6667C80.0046 64.9442 79.5593 67.2002 78.6899 69.3053C77.8204 71.4103 76.5438 73.3229 74.9334 74.9334C73.3229 76.5438 71.4103 77.8204 69.3053 78.6899C67.2002 79.5593 64.9442 80.0046 62.6667 80H17.3334C15.0558 80.0046 12.7998 79.5593 10.6948 78.6899C8.58978 77.8204 6.67716 76.5438 5.0667 74.9334C3.45625 73.3229 2.17966 71.4103 1.31019 69.3053C0.440718 67.2002 -0.00451573 64.9442 3.4528e-05 62.6667V17.3334C-0.00451573 15.0558 0.440718 12.7998 1.31019 10.6948C2.17966 8.58978 3.45625 6.67716 5.0667 5.0667C6.67716 3.45625 8.58978 2.17966 10.6948 1.31019C12.7998 0.440718 15.0558 -0.00451573 17.3334 3.4528e-05H62.6667C64.9442 -0.00451573 67.2002 0.440718 69.3053 1.31019C71.4103 2.17966 73.3229 3.45625 74.9334 5.0667C76.5438 6.67716 77.8204 8.58978 78.6899 10.6948C79.5593 12.7998 80.0046 15.0558 80 17.3334Z" fill="url(#paint0_linear_1452_568)"/>
<path fill-rule="evenodd" clip-rule="evenodd" d="M55.0669 46H65.0002C65.9727 46 66.9053 46.3863 67.593 47.0739C68.2806 47.7616 68.6669 48.6942 68.6669 49.6667C68.6669 50.6391 68.2806 51.5718 67.593 52.2594C66.9053 52.947 65.9727 53.3333 65.0002 53.3333H55.0669V46Z" fill="white"/>
<path fill-rule="evenodd" clip-rule="evenodd" d="M42.8668 46.0001C43.5596 45.9959 44.2463 46.1293 44.8872 46.3925C45.528 46.6557 46.1103 47.0435 46.6002 47.5334C47.09 48.0233 47.4778 48.6055 47.741 49.2464C48.0042 49.8872 48.1376 50.5739 48.1335 51.2667C48.1362 51.9751 48.0003 52.6772 47.7335 53.3334H15.0002C14.0277 53.3334 13.0951 52.9471 12.4074 52.2594C11.7198 51.5718 11.3335 50.6392 11.3335 49.6667C11.3335 48.6943 11.7198 47.7616 12.4074 47.074C13.0951 46.3864 14.0277 46.0001 15.0002 46.0001H42.8668ZM41.9335 21.8667V28.2667H37.6668L32.4668 19.3334C32.2384 18.9394 32.0899 18.5042 32.0299 18.0528C31.9698 17.6014 31.9993 17.1425 32.1167 16.7025C32.2341 16.2625 32.4371 15.8499 32.7141 15.4884C32.9911 15.1269 33.3367 14.8236 33.731 14.5957C34.1253 14.3679 34.5607 14.22 35.0122 14.1606C35.4637 14.1012 35.9226 14.1314 36.3624 14.2494C36.8023 14.3674 37.2145 14.5711 37.5756 14.8486C37.9367 15.1261 38.2396 15.4721 38.4668 15.8667L41.9335 21.8667ZM45.6002 28.0667L63.8002 59.6001C64.2864 60.4399 64.4191 61.4385 64.169 62.3762C63.919 63.3139 63.3067 64.1138 62.4668 64.6001C61.627 65.0863 60.6284 65.219 59.6907 64.9689C58.753 64.7189 57.9531 64.1066 57.4668 63.2667L46.4668 44.1334C45.4668 42.2667 44.7335 40.8001 44.2668 40.0001C43.1713 38.1335 42.7091 35.9626 42.9494 33.8117C43.1898 31.6608 44.1197 29.6454 45.6002 28.0667Z" fill="white"/>
<path fill-rule="evenodd" clip-rule="evenodd" d="M30.6666 49.3334H22.1999L41.3332 16.2C41.8195 15.3602 42.6194 14.7479 43.5571 14.4978C44.4948 14.2478 45.4934 14.3805 46.3332 14.8667C47.1731 15.3529 47.7854 16.1529 48.0354 17.0906C48.2855 18.0282 48.1528 19.0268 47.6666 19.8667L30.6666 49.3334ZM26.1999 57L22.6666 63.2C22.4258 63.6159 22.1055 63.9802 21.7239 64.2723C21.3424 64.5644 20.907 64.7784 20.4427 64.9022C19.9784 65.026 19.4943 65.0572 19.018 64.9939C18.5416 64.9306 18.0824 64.7741 17.6666 64.5334C17.2507 64.2926 16.8864 63.9723 16.5943 63.5907C16.3022 63.2092 16.0882 62.7738 15.9644 62.3095C15.8406 61.8452 15.8094 61.3611 15.8727 60.8847C15.936 60.4084 16.0925 59.9492 16.3332 59.5334L18.9332 55C19.7406 54.5983 20.6314 54.3927 21.5332 54.4C22.4738 54.3691 23.4051 54.5948 24.2271 55.0528C25.0492 55.5109 25.7312 56.184 26.1999 57Z" fill="white"/>
</g>
<defs>
<linearGradient id="paint0_linear_1452_568" x1="39.9994" y1="80" x2="39.9994" y2="3.8147e-05" gradientUnits="userSpaceOnUse">
<stop stop-color="#1D6FF2"/>
<stop offset="1" stop-color="#1AC8FC"/>
</linearGradient>
<clipPath id="clip0_1452_568">
<rect width="80" height="80" fill="white"/>
</clipPath>
</defs>
</svg>
