<svg viewBox="0 0 80 80" fill="none" xmlns="http://www.w3.org/2000/svg">
<g clip-path="url(#clip0_1452_562)">
<path d="M76.6667 40C76.6667 42.5 75.2667 44.7 73.2334 45.8333L55.9001 55.4667L41.2334 40L55.9001 24.5333L73.2334 34.1667C75.2667 35.3 76.6667 37.5 76.6667 40Z" fill="#FFC107"/>
<path d="M41.2335 40L5.2335 77.9667C4.0335 76.7667 3.3335 75.1333 3.3335 73.3333V6.66666C3.3335 4.86666 4.0335 3.23333 5.2335 2.03333L41.2335 40Z" fill="#03A9F4"/>
<path d="M41.2334 40L55.9001 55.4667L13.2334 79.1667C12.2667 79.7 11.1667 80 10.0001 80C8.1334 80 6.4334 79.2333 5.2334 77.9667L41.2334 40Z" fill="#F44336"/>
<path d="M55.9001 24.5333L41.2334 40L5.2334 2.03333C6.4334 0.766667 8.1334 0 10.0001 0C11.1667 0 12.2667 0.3 13.2334 0.833333L55.9001 24.5333Z" fill="#4CAF50"/>
</g>
<defs>
<clipPath id="clip0_1452_562">
<rect width="80" height="80" fill="white"/>
</clipPath>
</defs>
</svg>
